<?xml version="1.0" encoding="UTF-8"?>
<svg version="1.1" xmlns="http://www.w3.org/2000/svg" width="619" height="405">
<path d="M0 0 C204.27 0 408.54 0 619 0 C619 133.65 619 267.3 619 405 C414.73 405 210.46 405 0 405 C0 271.35 0 137.7 0 0 Z " fill="#FEFEFE" transform="translate(0,0)"/>
<path d="M0 0 C5.51347971 -0.07471359 11.02665822 -0.12886615 16.54052734 -0.16479492 C18.41232443 -0.17978865 20.28408694 -0.2001905 22.15576172 -0.22631836 C44.08380821 -0.52453979 44.08380821 -0.52453979 52.9375 4.75 C56.93142715 9.10701144 58.66004764 14.01252228 58.41796875 19.94921875 C57.37120286 25.08521963 54.14910999 28.90694416 50.4375 32.4375 C48.2021504 33.87041641 46.60551135 34.61399832 44 35 C44 35.66 44 36.32 44 37 C44.721875 37.20625 45.44375 37.4125 46.1875 37.625 C49.80740063 39.3947292 52.19930459 41.41336897 54 45 C55.15403189 50.94923334 54.20973803 56.10571094 51.18359375 61.3203125 C47.31149874 66.81536483 41.25747126 69.13878435 35 71 C30.94106954 71.4973157 26.95145786 71.46987717 22.8671875 71.390625 C21.74933868 71.38496521 20.63148987 71.37930542 19.47976685 71.37347412 C15.94439039 71.3512622 12.41006496 71.30109311 8.875 71.25 C6.46355641 71.22991543 4.05209677 71.21166811 1.640625 71.1953125 C-4.23993588 71.15144736 -10.11989282 71.08468875 -16 71 C-15.49095895 65.78134767 -14.83822909 60.7225039 -13.6171875 55.61328125 C-13.20170654 53.85516113 -13.20170654 53.85516113 -12.77783203 52.06152344 C-12.47989746 50.8243457 -12.18196289 49.58716797 -11.875 48.3125 C-11.56441001 47.00696224 -11.25436131 45.70129561 -10.94482422 44.39550781 C-10.46211492 42.36000789 -9.9788861 40.32464234 -9.49356079 38.2897644 C-8.31399635 33.34230629 -7.15878147 28.38958184 -6.015625 23.43359375 C-5.6954927 22.04841719 -5.37534322 20.66324461 -5.05517578 19.27807617 C-4.59168614 17.27234724 -4.12878854 15.26649246 -3.66790771 13.26016235 C-3.24188263 11.40727699 -2.81243042 9.55518061 -2.3828125 7.703125 C-2.13934082 6.64770508 -1.89586914 5.59228516 -1.64501953 4.50488281 C-1 2 -1 2 0 0 Z " fill="#80909E" transform="translate(55,86)"/>
<path d="M0 0 C4.62233413 -0.1001172 9.24401456 -0.17204532 13.8671875 -0.21972656 C15.43435686 -0.23963732 17.00145397 -0.26677635 18.56835938 -0.30175781 C29.68464051 -0.5434161 40.6892994 -0.4343388 49.9375 6.6875 C55.00524946 11.63778761 58.19852361 17.37094367 58.6640625 24.48828125 C58.68534869 26.42961447 58.67139143 28.37160443 58.625 30.3125 C58.60880615 31.32852295 58.5926123 32.3445459 58.57592773 33.39135742 C58.17534782 45.20704439 54.71167882 53.32237786 46.46484375 61.87109375 C37.84931325 69.31239981 27.94680036 71.32127563 16.91015625 71.1953125 C15.4933683 71.19106766 15.4933683 71.19106766 14.04795837 71.18673706 C11.05267276 71.17560684 8.05769414 71.1505156 5.0625 71.125 C3.0227908 71.11496095 0.98307688 71.10583672 -1.05664062 71.09765625 C-6.0378774 71.07569096 -11.01888678 71.04121076 -16 71 C-13.47283249 56.00986782 -9.84492 41.27816196 -6.3125 26.5 C-5.69952305 23.92325954 -5.08689008 21.34643723 -4.47460938 18.76953125 C-2.98703685 12.51207173 -1.49522336 6.25563551 0 0 Z " fill="#80909E" transform="translate(447,234)"/>
<path d="M0 0 C5.51345681 -0.0996177 11.02637828 -0.1718191 16.54052734 -0.21972656 C18.41236509 -0.23971863 20.28414138 -0.26692168 22.15576172 -0.30175781 C44.33123001 -0.70387297 44.33123001 -0.70387297 52.9375 6.4375 C57.91257415 12.61865273 58.7740987 17.39505497 58.48046875 25.2578125 C57.58751848 32.21266091 53.91952522 36.46895507 48.8125 41 C46 43 46 43 43 44 C43.69208881 48.8446217 45.58260188 53.04147184 47.5 57.5 C48.13979208 58.98770929 48.77533429 60.4772547 49.40625 61.96875 C49.82874023 62.95004883 49.82874023 62.95004883 50.25976562 63.95117188 C51 66 51 66 52 71 C44.74 71 37.48 71 30 71 C27.1875 63.375 27.1875 63.375 26.32104492 61.00927734 C25.57195613 58.99586162 24.79187679 56.99694926 24 55 C23.54625 53.8553125 23.0925 52.710625 22.625 51.53125 C21.24206563 48.78895781 21.24206563 48.78895781 18.51953125 48.1953125 C17.17955078 48.16050781 17.17955078 48.16050781 15.8125 48.125 C14.91144531 48.08632813 14.01039063 48.04765625 13.08203125 48.0078125 C12.05142578 48.00394531 12.05142578 48.00394531 11 48 C10.83564453 49.10794922 10.83564453 49.10794922 10.66796875 50.23828125 C9.55916098 57.33284805 7.9966198 64.10258614 6 71 C-1.26 71 -8.52 71 -16 71 C-13.28205867 57.01208336 -10.2275974 43.1602388 -6.875 29.3125 C-6.2082365 26.54385548 -5.54255701 23.77495332 -4.87747192 21.00590515 C-4.46907044 19.30705737 -4.05955597 17.60847656 -3.64865112 15.91023254 C-2.37212332 10.61957677 -1.16309034 5.31673701 0 0 Z " fill="#81909E" transform="translate(204,234)"/>
<path d="M0 0 C7.92 0 15.84 0 24 0 C24.86625 3.09375 25.7325 6.1875 26.625 9.375 C28.88537789 17.37775574 31.33376845 25.28738702 34.08251953 33.13623047 C35.44440798 37.07746712 36.44987377 40.86434519 37 45 C38.27272139 42.45455722 38.45221348 40.18914391 38.8359375 37.36328125 C39.999568 29.52766545 41.77866617 21.8814901 43.625 14.1875 C43.95359058 12.80154259 44.281718 11.41547529 44.609375 10.02929688 C45.40010246 6.68467946 46.20019305 3.34250873 47 0 C53.6 0 60.2 0 67 0 C64.00674271 14.51836432 60.72128125 28.94917251 57.3125 43.375 C56.56431287 46.54822062 55.81677051 49.72159096 55.07011414 52.89517212 C54.61034793 54.84867477 54.14963426 56.80195476 53.68782043 58.75497437 C53.48057846 59.63424591 53.27333649 60.51351746 53.05981445 61.41943359 C52.87868607 62.1859726 52.69755768 62.9525116 52.51094055 63.74227905 C51.9655014 66.15244087 51.48462451 68.57687744 51 71 C43.08 71 35.16 71 27 71 C24.64449413 64.52235886 22.36975324 58.22370734 20.5 51.625 C20.08029337 50.16511525 19.65970984 48.70548235 19.23828125 47.24609375 C19.03283691 46.53437012 18.82739258 45.82264648 18.61572266 45.08935547 C17.38560064 40.91513493 16.0402551 36.77643965 14.69921875 32.63671875 C14 30 14 30 14 26 C13.34 26 12.68 26 12 26 C11.95262695 26.90286743 11.95262695 26.90286743 11.90429688 27.82397461 C11.34042721 35.84947215 9.75228559 43.56457489 7.98876953 51.3918457 C7.4941643 53.5884167 7.0099994 55.78710352 6.52734375 57.98632812 C4.15629186 68.68741628 4.15629186 68.68741628 3 71 C-3.27 71 -9.54 71 -16 71 C-14.87468654 61.99749231 -14.87468654 61.99749231 -13.94018555 57.81591797 C-13.62932259 56.4130806 -13.62932259 56.4130806 -13.31217957 54.98190308 C-13.0892775 53.99529694 -12.86637543 53.0086908 -12.63671875 51.9921875 C-12.4034639 50.94910431 -12.17020905 49.90602112 -11.92988586 48.83132935 C-11.43665646 46.63062197 -10.94151796 44.43034169 -10.44458008 42.23046875 C-9.69483968 38.90753035 -8.95344879 35.58280774 -8.21289062 32.2578125 C-5.77898405 21.39828055 -3.21794206 10.65513358 0 0 Z " fill="#81909E" transform="translate(371,234)"/>
<path d="M0 0 C18.81 0 37.62 0 57 0 C56 9 56 9 54 17 C42.12 17 30.24 17 18 17 C17.34 20.63 16.68 24.26 16 28 C24.91 28 33.82 28 43 28 C42 38 42 38 40 44 C30.76 44 21.52 44 12 44 C11.34 47.63 10.68 51.26 10 55 C21.55 55 33.1 55 45 55 C44 65 44 65 42 71 C22.86 71 3.72 71 -16 71 C-14.87485523 60.8736971 -14.87485523 60.8736971 -14.04785156 57.33251953 C-13.86385803 56.53363312 -13.6798645 55.7347467 -13.49029541 54.91165161 C-13.29240417 54.0771347 -13.09451294 53.2426178 -12.890625 52.3828125 C-12.68193787 51.48617889 -12.47325073 50.58954529 -12.25823975 49.66574097 C-11.81688061 47.77430436 -11.3730129 45.88345153 -10.92675781 43.99316406 C-10.26030591 41.16867743 -9.60212034 38.34236792 -8.9453125 35.515625 C-8.51091195 33.65873823 -8.07603013 31.80196397 -7.640625 29.9453125 C-7.45083069 29.1310379 -7.26103638 28.31676331 -7.06549072 27.47781372 C-4.88476665 18.26687402 -2.41156387 9.16394269 0 0 Z " fill="#81909E" transform="translate(307,234)"/>
<path d="M0 0 C18.81 0 37.62 0 57 0 C56 9 56 9 54 17 C42.12 17 30.24 17 18 17 C17.34 20.63 16.68 24.26 16 28 C24.91 28 33.82 28 43 28 C42 38 42 38 40 44 C30.76 44 21.52 44 12 44 C11.34 47.63 10.68 51.26 10 55 C21.55 55 33.1 55 45 55 C44 65 44 65 42 71 C22.86 71 3.72 71 -16 71 C-14.87485523 60.8736971 -14.87485523 60.8736971 -14.04785156 57.33251953 C-13.86385803 56.53363312 -13.6798645 55.7347467 -13.49029541 54.91165161 C-13.29240417 54.0771347 -13.09451294 53.2426178 -12.890625 52.3828125 C-12.68193787 51.48617889 -12.47325073 50.58954529 -12.25823975 49.66574097 C-11.81688061 47.77430436 -11.3730129 45.88345153 -10.92675781 43.99316406 C-10.26030591 41.16867743 -9.60212034 38.34236792 -8.9453125 35.515625 C-8.51091195 33.65873823 -8.07603013 31.80196397 -7.640625 29.9453125 C-7.45083069 29.1310379 -7.26103638 28.31676331 -7.06549072 27.47781372 C-4.88476665 18.26687402 -2.41156387 9.16394269 0 0 Z " fill="#81909E" transform="translate(126,86)"/>
<path d="M0 0 C1.37029966 0.99907302 2.72638604 2.0181497 4.0625 3.0625 C5.073125 3.84625 6.08375 4.63 7.125 5.4375 C8.0840625 6.241875 8.0840625 6.241875 9.0625 7.0625 C7.52606148 10.74319887 5.28099055 13.05025204 2.4375 15.8125 C1.62023437 16.61171875 0.80296875 17.4109375 -0.0390625 18.234375 C-0.66554688 18.83765625 -1.29203125 19.4409375 -1.9375 20.0625 C-4.42059816 18.86890775 -6.53379145 17.64768856 -8.8125 16.0625 C-15.17131004 11.99286158 -20.59396506 11.80126753 -27.9375 12.0625 C-28.4325 14.5375 -28.4325 14.5375 -28.9375 17.0625 C-24.88656755 19.72903611 -20.67712311 21.30423817 -16.125 22.875 C-8.72667017 25.5527944 -2.68059909 28.29073875 2.0625 34.8125 C4.22705543 41.84730514 3.77899967 48.37125065 0.4453125 54.95703125 C-3.50981837 60.97910904 -8.85250248 64.90046286 -15.84765625 66.625 C-29.04885404 68.49419615 -43.23741351 68.18156779 -54.4375 60.125 C-57.45358335 57.61372721 -60.24860868 54.91944703 -62.9375 52.0625 C-61.65632171 47.36484629 -58.94222107 44.84447339 -55.49609375 41.61328125 C-53.83719455 40.12739775 -53.83719455 40.12739775 -52.9375 38.0625 C-52.2775 38.0625 -51.6175 38.0625 -50.9375 38.0625 C-50.421875 38.784375 -49.90625 39.50625 -49.375 40.25 C-44.64974646 45.70221562 -37.94638241 48.6347647 -30.9375 50.0625 C-25.58625266 50.45943103 -25.58625266 50.45943103 -20.9375 48.0625 C-20.79791724 45.6329033 -20.79791724 45.6329033 -21.9375 43.0625 C-24.68442545 41.79982487 -27.12620435 40.9014416 -30 40.0625 C-39.22856865 37.08455458 -46.15047309 34.12926478 -51.9375 26.0625 C-54.08839678 19.60980966 -53.46440424 12.31959621 -50.9375 6.0625 C-46.71867454 -0.26573818 -41.70862553 -2.42904979 -34.8125 -5.1875 C-23.04349335 -7.46537225 -10.2194379 -6.66118477 0 0 Z " fill="#80909E" transform="translate(565.9375,238.9375)"/>
<path d="M0 0 C18.48 0 36.96 0 56 0 C54 12 54 12 52 17 C40.78 17 29.56 17 18 17 C17.34 20.96 16.68 24.92 16 29 C24.91 29 33.82 29 43 29 C41 41 41 41 40 46 C30.43 46 20.86 46 11 46 C10.67 48.97 10.34 51.94 10 55 C9.35921272 57.88482948 8.69332126 60.71147757 7.9375 63.5625 C7.298125 66.016875 6.65875 68.47125 6 71 C-1.26 71 -8.52 71 -16 71 C-14.87500243 60.87502185 -14.87500243 60.87502185 -14.03198242 57.30078125 C-13.8447612 56.49543945 -13.65753998 55.69009766 -13.46464539 54.86035156 C-13.2636171 54.01956055 -13.06258881 53.17876953 -12.85546875 52.3125 C-12.64440994 51.41112305 -12.43335114 50.50974609 -12.21589661 49.58105469 C-11.54466917 46.71952323 -10.86623852 43.85975809 -10.1875 41 C-9.74365956 39.11339436 -9.3002966 37.22667632 -8.85742188 35.33984375 C-7.99124782 31.6527412 -7.12105779 27.96662374 -6.24755859 24.28125 C-5.42901404 20.82494422 -4.61937959 17.36677142 -3.81884766 13.90625 C-3.63574539 13.11766602 -3.45264313 12.32908203 -3.26399231 11.51660156 C-2.92268675 10.04506371 -2.5832902 8.57308129 -2.24613953 7.10058594 C-1.11185369 2.22370739 -1.11185369 2.22370739 0 0 Z " fill="#81919E" transform="translate(118,160)"/>
<path d="M0 0 C18.48 0 36.96 0 56 0 C55 9 55 9 53 17 C41.45 17 29.9 17 18 17 C17.67 19.97 17.34 22.94 17 26 C16.505 27.485 16.505 27.485 16 29 C24.91 29 33.82 29 43 29 C42 38 42 38 40 46 C30.76 46 21.52 46 12 46 C10.76964215 51.98184025 10.76964215 51.98184025 9.54736328 57.96533203 C9.38993652 58.72185059 9.23250977 59.47836914 9.0703125 60.2578125 C8.91320801 61.0223877 8.75610352 61.78696289 8.59423828 62.57470703 C7.89492852 65.42883322 6.9292508 68.21224761 6 71 C-1.26 71 -8.52 71 -16 71 C-13.39302859 56.01697297 -9.84648239 41.28808811 -6.3125 26.5 C-4.229375 17.755 -2.14625 9.01 0 0 Z " fill="#81919E" transform="translate(143,234)"/>
<path d="M0 0 C22.11 0 44.22 0 67 0 C66 9 66 9 64 17 C56.41 17 48.82 17 41 17 C40.505 19.59875 40.01 22.1975 39.5 24.875 C36.47172634 40.35072887 32.66458695 55.66566044 29 71 C21.74 71 14.48 71 7 71 C8.12518839 61.99849288 8.12518839 61.99849288 9.015625 58.08447266 C9.2125293 57.2106192 9.40943359 56.33676575 9.61230469 55.43643188 C9.82274414 54.52154999 10.03318359 53.60666809 10.25 52.6640625 C10.46817383 51.70349945 10.68634766 50.7429364 10.91113281 49.75326538 C11.3698756 47.73759045 11.83051759 45.7223469 12.29296875 43.70751953 C13.00235877 40.61471622 13.7047359 37.52037943 14.40625 34.42578125 C14.8537545 32.46344763 15.30165699 30.50120471 15.75 28.5390625 C15.96043945 27.61203522 16.17087891 26.68500793 16.38769531 25.72988892 C16.58459961 24.87494843 16.78150391 24.02000793 16.984375 23.13916016 C17.24299316 22.00953354 17.24299316 22.00953354 17.50683594 20.85708618 C18 19 18 19 19 17 C11.74 17 4.48 17 -3 17 C-2 8 -2 8 0 0 Z " fill="#81909E" transform="translate(205,160)"/>
<path d="M0 0 C7.26 0 14.52 0 22 0 C21.35510394 5.80406454 20.70533983 10.8276674 19.36328125 16.40234375 C19.12318329 17.41078087 19.12318329 17.41078087 18.87823486 18.43959045 C18.36124245 20.60677222 17.83694335 22.77211055 17.3125 24.9375 C16.76948897 27.20427004 16.22826701 29.47146265 15.68711853 31.73867798 C15.32273378 33.26468855 14.95771277 34.79054733 14.59205627 36.31625366 C12.60162307 44.63077525 10.70036709 52.96533802 8.81567383 61.30444336 C8.58904053 62.29710205 8.36240723 63.28976074 8.12890625 64.3125 C7.93369385 65.17488281 7.73848145 66.03726563 7.53735352 66.92578125 C7 69 7 69 6 71 C-1.26 71 -8.52 71 -16 71 C-13.39322466 56.01809986 -9.84689137 41.28640932 -6.3125 26.5 C-5.69952305 23.92325954 -5.08689008 21.34643723 -4.47460938 18.76953125 C-2.98703649 12.5120702 -1.49481484 6.25573483 0 0 Z " fill="#81909E" transform="translate(179,160)"/>
<path d="M0 0 C7.26 0 14.52 0 22 0 C20.87504061 10.12463447 20.87504061 10.12463447 19.70898438 15.17480469 C19.32353455 16.86135162 19.32353455 16.86135162 18.93029785 18.58197021 C18.65423706 19.76663879 18.37817627 20.95130737 18.09375 22.171875 C17.80898804 23.41245667 17.52422607 24.65303833 17.23083496 25.93121338 C16.47857929 29.20484992 15.72207997 32.47744254 14.96331787 35.74957275 C13.89340109 40.36905933 12.83215772 44.9905497 11.76916504 49.6116333 C11.20404648 52.0660098 10.63760878 54.52008304 10.06970215 56.97381592 C9.68425232 58.64144989 9.68425232 58.64144989 9.29101562 60.34277344 C9.06530884 61.31712341 8.83960205 62.29147339 8.60705566 63.29534912 C8.03251077 65.85515286 7.51450862 68.42745692 7 71 C-0.59 71 -8.18 71 -16 71 C-13.55819828 58.20495898 -10.74912408 45.56301687 -7.65380859 32.91064453 C-4.97744249 21.96660614 -2.46780717 10.99295921 0 0 Z " fill="#81909E" transform="translate(275,234)"/>
<path d="M0 0 C9.04576659 -0.30663616 9.04576659 -0.30663616 13 2 C16.54202584 5.6928899 17.55016924 8.02027996 17.5 13.125 C17.25246426 20.92237567 15.20761141 27.3460225 11.1875 34 C5.03233344 39.62758085 -1.07662191 39.31891803 -9 39 C-7.58866144 30.74403504 -5.83476542 22.59435644 -3.9375 14.4375 C-3.66873047 13.26380859 -3.39996094 12.09011719 -3.12304688 10.88085938 C-2.86458984 9.76388672 -2.60613281 8.64691406 -2.33984375 7.49609375 C-2.10644287 6.48732178 -1.87304199 5.4785498 -1.63256836 4.43920898 C-1 2 -1 2 0 0 Z " fill="#F9F9F9" transform="translate(466,250)"/>
<path d="M0 0 C12.66970387 -0.55353075 12.66970387 -0.55353075 18 3 C18.60721063 10.16508539 18.60721063 10.16508539 16 13.75 C12.04881418 16.71338937 9.46890838 16.59024043 4.6875 16.3125 C3.94693359 16.28994141 3.20636719 16.26738281 2.44335938 16.24414062 C0.62802643 16.1855815 -1.18625681 16.09590886 -3 16 C-2.68954268 14.0830014 -2.37655329 12.16641277 -2.0625 10.25 C-1.88847656 9.18265625 -1.71445313 8.1153125 -1.53515625 7.015625 C-1.11295829 4.63652407 -0.62797116 2.33084789 0 0 Z " fill="#F5F6F6" transform="translate(222,250)"/>
<path d="M0 0 C0.82886719 -0.020625 1.65773438 -0.04125 2.51171875 -0.0625 C3.30964844 -0.06765625 4.10757813 -0.0728125 4.9296875 -0.078125 C6.02772705 -0.09214355 6.02772705 -0.09214355 7.14794922 -0.10644531 C9.68918427 0.35171759 10.55785639 1.23484266 12.125 3.25 C12.625 5.6875 12.625 5.6875 12.125 8.25 C9.95026658 10.68162657 8.21579045 12.09071884 4.93310547 12.57006836 C2.381768 12.64346439 -0.13712074 12.59889614 -2.6875 12.5 C-3.57115234 12.48195312 -4.45480469 12.46390625 -5.36523438 12.4453125 C-7.53562543 12.39838513 -9.70545519 12.32664731 -11.875 12.25 C-11.56730293 10.43667846 -11.25370936 8.62435655 -10.9375 6.8125 C-10.67646484 5.29849609 -10.67646484 5.29849609 -10.41015625 3.75390625 C-9.26693274 -1.59504465 -4.57651662 0.02820657 0 0 Z " fill="#F4F4F5" transform="translate(74.875,129.75)"/>
<path d="M0 0 C2.4377963 -0.05397335 4.87439685 -0.09365616 7.3125 -0.125 C8.00279297 -0.14175781 8.69308594 -0.15851563 9.40429688 -0.17578125 C13.17135396 -0.21217794 14.78431704 -0.14378864 18 2 C18.52790127 5.46906551 18.50911668 7.26592478 16.48828125 10.1796875 C13.01490321 12.72065165 9.87165533 12.43933399 5.75 12.25 C4.63238281 12.22292969 4.63238281 12.22292969 3.4921875 12.1953125 C1.66090299 12.14835649 -0.16971649 12.07661652 -2 12 C-1.34 8.04 -0.68 4.08 0 0 Z " fill="#F5F5F5" transform="translate(72,102)"/>
</svg>
